<svg height='100px' width='100px'  fill="#207383" xmlns="http://www.w3.org/2000/svg" xmlns:xlink="http://www.w3.org/1999/xlink" xmlns:sketch="http://www.bohemiancoding.com/sketch/ns" viewBox="0 0 100 100" version="1.1" x="0px" y="0px"><title>Artboard 1 Copy 13</title><desc>Created with Sketch.</desc><g stroke="none" stroke-width="1" fill="none" fill-rule="evenodd" sketch:type="MSPage"><g sketch:type="MSArtboardGroup" fill="#207383"><path d="M70.0826721,49.2728423 C69.846427,47.7020059 69.4397195,46.8829382 69.0354092,46.5422292 C64.4863444,42.7087696 51.3067865,30.6153021 48.1431706,16.7513988 C47.3766426,13.3922458 47.8728324,10.0987353 46.8632942,6.83422641 C46.3585252,5.7460569 42.3203725,1.01359196 37.7774507,8.08669429 C33.234529,15.1597966 38.7869889,36.9231884 38.7869889,36.9231884 C38.7869889,36.9231884 39.9223315,39.3707331 27.7746939,39.3208506 C25.8930512,39.3131239 22.6343782,39.3208501 21.120071,39.3208501 C19.1009946,39.3208501 11.5294584,40.731782 12.0342275,46.7167147 C12.5389965,52.7016475 18.0914565,53.2457323 18.0914565,53.2457323 C18.0914565,53.2457323 9.00561295,54.3339018 9.00561295,59.7747498 C9.00561295,65.2155977 10.5199202,67.9360217 19.1009946,67.9360217 C19.1009946,67.9360217 10.0151511,69.0241913 11.5294584,76.0972936 C13.0437656,83.170396 21.120071,81.5381416 21.120071,81.5381416 C21.120071,81.5381416 16.0723801,84.9669509 17.0819183,89.1553287 C18.0914565,93.3437065 20.1105328,95.1402615 28.1868381,95.6843462 C36.2631435,96.228431 70.099251,91.1673673 70.099251,85.1824346 C70.099251,81.9179258 70.5309832,56.6679021 70.4950712,54.5752727 C70.4950712,54.5752727 70.4153938,51.4851685 70.0826721,49.2728423 Z" sketch:type="MSShapeGroup"></path><rect sketch:type="MSShapeGroup" x="75.2273151" y="45.2698784" width="15.7670719" height="42.5710942" rx="1"></rect></g></g></svg>