<?xml version="1.0" encoding="UTF-8"?>
<svg width="552px" height="141px" viewBox="0 0 552 141" version="1.1" xmlns="http://www.w3.org/2000/svg" xmlns:xlink="http://www.w3.org/1999/xlink">
    <!-- Generator: Sketch 51.3 (57544) - http://www.bohemiancoding.com/sketch -->
    <title>Logo</title>
    <desc>Created with Sketch.</desc>
    <defs>
        <polygon id="path-1" points="164.3 51.2 141 51.2 141 63.8 163 63.8 163 80.4 141 80.4 141 93.4 164.3 93.4 164.3 110 121.4 110 121.4 34.6 164.3 34.6"></polygon>
        <path d="M317.6,69.2 L324.1,69.2 C331.300036,69.2 334.9,66.066698 334.9,59.8 C334.9,53.533302 331.300036,50.4 324.1,50.4 L317.6,50.4 L317.6,69.2 Z M317.6,110 L298,110 L298,34.6 L329.2,34.6 C337.666709,34.6 344.149977,36.799978 348.65,41.2 C353.150022,45.600022 355.4,51.79996 355.4,59.8 C355.4,67.80004 353.150022,73.999978 348.65,78.4 C344.149977,82.800022 337.666709,85 329.2,85 L317.6,85 L317.6,110 Z" id="path-2"></path>
        <polygon id="path-3" points="377.7 34.6 390.7 83.3 406.7 34.6 422.3 34.6 438.3 83.3 451.3 34.6 471.8 34.6 449.3 110 429.3 110 414.5 66.3 399.7 110 379.7 110 357.2 34.6"></polygon>
        <path d="M521.3,82 L512.5,56.9 L503.7,82 L521.3,82 Z M526.5,96.9 L498.5,96.9 L494,110 L473.1,110 L501.8,34.6 L523.2,34.6 L551.9,110 L531,110 L526.5,96.9 Z" id="path-4"></path>
        <polygon id="path-5" points="20.7 34.6 33.7 83.3 49.7 34.6 65.3 34.6 81.3 83.3 94.3 34.6 114.8 34.6 92.3 110 72.3 110 57.5 66.3 42.7 110 22.7 110 0.2 34.6"></polygon>
    </defs>
    <g id="Page-1" stroke="none" stroke-width="1" fill="none" fill-rule="evenodd">
        <g id="Logo">
            <g id="E">
                <use fill="#FFFFFF" xlink:href="#path-1"></use>
                <use fill="#99D3AD" xlink:href="#path-1"></use>
            </g>
            <g id="P">
                <use fill="#FFFFFF" xlink:href="#path-2"></use>
                <use fill="#F28D81" xlink:href="#path-2"></use>
            </g>
            <g id="noun_Phone-love_1285464" transform="translate(192.000000, 0.000000)" fill="#F8333C">
                <path d="M11.8681319,0.903903904 L68.1318681,0.903903904 C74.7252747,0.903903904 80,6.1539039 80,12.7164039 L80,129.091404 C80,135.653904 74.7252747,140.903904 68.1318681,140.903904 L11.8681319,140.903904 C5.27472527,140.903904 0,135.653904 0,129.091404 L0,12.7164039 C0,6.1539039 5.27472527,0.903903904 11.8681319,0.903903904 Z M47.9120879,8.7789039 L48.3516484,8.7789039 C49.2307692,8.7789039 50.1098901,8.3414039 50.1098901,7.0289039 C50.1098901,6.1539039 49.2307692,5.7164039 48.3516484,5.7164039 L47.9120879,5.7164039 C46.5934066,5.7164039 46.1538462,6.1539039 46.1538462,7.0289039 C46.1538462,8.3414039 46.5934066,8.7789039 47.9120879,8.7789039 Z M26.8131868,8.7789039 L42.1978022,8.7789039 C43.0769231,8.7789039 43.956044,8.3414039 43.956044,7.0289039 C43.956044,6.1539039 43.0769231,5.7164039 42.1978022,5.7164039 L26.8131868,5.7164039 C25.9340659,5.7164039 25.0549451,6.1539039 25.0549451,7.0289039 C25.0549451,8.3414039 25.9340659,8.7789039 26.8131868,8.7789039 Z M40,127.341404 C42.6373626,127.341404 44.8351648,129.528904 44.8351648,132.153904 C44.8351648,134.778904 42.6373626,136.966404 40,136.966404 C37.3626374,136.966404 35.1648352,134.778904 35.1648352,132.153904 C35.1648352,129.528904 37.3626374,127.341404 40,127.341404 Z M4.3956044,13.1539039 L75.1648352,13.1539039 L75.1648352,122.528904 L4.3956044,122.528904 L4.3956044,13.1539039 Z" id="Shape"></path>
                <path d="M49.47468,97.9039039 L49.9216143,97.4655531 C52.1562857,91.7669932 56.6256285,82.999978 54.3909571,76.8630674 C53.4970885,74.6713136 51.7093514,72.4795598 49.0277457,72.041209 C44.5584029,71.1645075 40.9829286,74.6713136 40.08906,77.3014181 C37.4074543,76.4247166 32.0442429,76.8630674 29.8095715,80.8082242 C28.4687687,83.4383288 28.915703,85.6300826 30.2565058,87.8218364 C33.8319801,93.5203963 43.2176,95.7121501 49.47468,97.9039039 Z" id="Path"></path>
                <path d="M53.1053576,55.9039039 L53.1053576,55.4584494 C57.4989913,51.894813 64.9681686,47.4402675 65.8468954,41.6493584 C66.2862588,39.4220857 65.8468954,37.194813 63.6500785,35.4129948 C61.0138983,32.7402675 56.6202646,34.0766312 54.8628111,35.8584494 C53.1053576,33.6311766 49.1510872,31.8493584 45.6361802,33.6311766 C43.8787267,34.9675403 43,37.194813 43,39.4220857 C43,45.6584494 49.1510872,51.4493584 53.1053576,55.4584494 L53.1053576,55.9039039 Z" id="Path"></path>
                <path d="M29.0061388,68.9039039 C30.7760501,64.8994872 34.7583506,59.5602649 33.8733949,55.110913 C33.4309171,53.3311723 32.1034836,51.9963667 30.3335723,51.1064963 C27.6787053,50.216626 24.5813605,52.4413019 24.1388827,54.2210427 C22.3689714,53.3311723 18.3866709,53.3311723 17.0592375,56.0007834 C15.731804,57.335589 15.731804,59.1153297 16.6167596,60.8950705 C18.3866709,64.8994872 25.0238384,67.1241631 29.0061388,68.9039039 Z" id="Path"></path>
            </g>
            <g id="W">
                <use fill="#FFFFFF" xlink:href="#path-3"></use>
                <use fill="#FDC966" xlink:href="#path-3"></use>
            </g>
            <g id="A">
                <use fill="#FFFFFF" xlink:href="#path-4"></use>
                <use fill="#207383" xlink:href="#path-4"></use>
            </g>
            <g id="W">
                <use fill="#FFFFFF" xlink:href="#path-5"></use>
                <use fill="#FDC966" xlink:href="#path-5"></use>
            </g>
        </g>
    </g>
</svg>