<svg height='100px' width='100px'  fill="#f8333c" xmlns="http://www.w3.org/2000/svg" xmlns:xlink="http://www.w3.org/1999/xlink" xml:space="preserve" version="1.1" style="shape-rendering:geometricPrecision;text-rendering:geometricPrecision;image-rendering:optimizeQuality;" viewBox="0 0 333 333" x="0px" y="0px" fill-rule="evenodd" clip-rule="evenodd"><defs><style type="text/css">
   
    .fil0 {fill:#f8333c}
   
  </style></defs><g><path class="fil0" d="M103 7l128 0c15,0 27,12 27,27l0 266c0,15 -12,27 -27,27l-128 0c-15,0 -27,-12 -27,-27l0 -266c0,-15 12,-27 27,-27zm82 18l1 0c2,0 4,-1 4,-4l0 0c0,-2 -2,-3 -4,-3l-1 0c-3,0 -4,1 -4,3l0 0c0,3 1,4 4,4zm-48 0l35 0c2,0 4,-1 4,-4l0 0c0,-2 -2,-3 -4,-3l-35 0c-2,0 -4,1 -4,3l0 0c0,3 2,4 4,4zm30 271c6,0 11,5 11,11 0,6 -5,11 -11,11 -6,0 -11,-5 -11,-11 0,-6 5,-11 11,-11zm-81 -261l161 0 0 250 -161 0 0 -250z"></path><path class="fil0" d="M188 229l1 -1c5,-13 15,-33 10,-47 -2,-5 -6,-10 -12,-11 -10,-2 -18,6 -20,12 -6,-2 -18,-1 -23,8 -3,6 -2,11 1,16 8,13 29,18 43,23l0 0z"></path><path class="fil0" d="M196 131l0 -1c10,-8 27,-18 29,-31 1,-5 0,-10 -5,-14 -6,-6 -16,-3 -20,1 -4,-5 -13,-9 -21,-5 -4,3 -6,8 -6,13 0,14 14,27 23,36l0 1z"></path><path class="fil0" d="M142 162l0 0c4,-9 13,-21 11,-31 -1,-4 -4,-7 -8,-9 -6,-2 -13,3 -14,7 -4,-2 -13,-2 -16,4 -3,3 -3,7 -1,11 4,9 19,14 28,18l0 0z"></path></g></svg>